<svg id="Layer_1" data-name="Layer 1" xmlns="http://www.w3.org/2000/svg" width="200" height="200" viewBox="0 0 200 200"><defs><style>.cls-1{fill:#860000;}.cls-2{fill:#eeba34;}</style></defs><title>Icons</title><path class="cls-1" d="M25.24,44.9H22.59a2.8,2.8,0,0,1-3-2.29,2.74,2.74,0,0,1,1.68-3.23l11.22-5.63c7.37-3.69,14.77-7.34,22.12-11.09a4.54,4.54,0,0,1,4.55,0c10.77,5.45,21.59,10.81,32.38,16.23a6.22,6.22,0,0,1,2.14,1.54,2.79,2.79,0,0,1-2,4.42c-1,.1-1.92,0-3.16,0v70c0,4.13-.52,4.65-4.6,4.72l-1.06.08c1.56,2.1,3,4,4.45,6,.9,1.18,1.7,2.36.86,3.91s-2.1,1.56-3.54,1.56q-27.75,0-55.49,0c-1.45,0-2.75-.16-3.5-1.61s-.08-2.62.8-3.76c1.48-1.93,2.92-3.89,4.59-6.14-1,0-1.61,0-2.24,0-2.46,0-3.48-1-3.48-3.5q0-16.51,0-33Zm5.9,0v68.78H42.49c0-4.56,0-9,0-13.41,0-2.71,1-3.69,3.66-3.69q10.5,0,21,0c3.21,0,4,.83,4.06,4v13.24H82.58V44.94Zm47.47-5.86a5.46,5.46,0,0,0-.63-.52c-6.73-3.37-13.44-6.76-20.2-10.06a2.75,2.75,0,0,0-2.1.13c-6.49,3.18-12.94,6.43-19.4,9.66-.34.17-.67.38-1.39.79Zm1.16,86.17c-1.41-1.86-2.62-3.55-3.93-5.14a2,2,0,0,0-1.42-.48q-17.56,0-35.15,0a2,2,0,0,0-1.41.48c-1.31,1.6-2.51,3.28-3.91,5.14ZM65.4,102.49h-17v11.27h17Z"/><path class="cls-1" d="M138.05,137.89v-14c-.44,0-.86-.08-1.28-.08-4.18,0-8.35,0-12.52,0a7,7,0,0,1-7.37-7.43c0-2.94,0-5.89,0-8.83a7,7,0,0,1,7.21-7.29q21.14,0,42.26,0a7,7,0,0,1,7.06,7q.06,4.71,0,9.42a7,7,0,0,1-7.23,7.13c-4.12,0-8.24,0-12.37,0h-1.52v2.67a7.26,7.26,0,0,1,6.57,1.14,7.45,7.45,0,0,1,2.85,5.86c4.9-.61,6.68.33,9.13,4.69a21.71,21.71,0,0,1,3.67-.13,7,7,0,0,1,6,7c0,3,0,6,0,9a5.82,5.82,0,0,1-.32,1.71,20.46,20.46,0,0,1-1.15,2.87A29.52,29.52,0,0,0,175.74,175c.19,2.11-.78,3-2.88,3H138.7c-2.18,0-3.2-.84-2.93-3a19.75,19.75,0,0,0-4.39-15.3,13,13,0,0,1-2.76-9.88c.17-1.5,0-3,0-4.56a7.06,7.06,0,0,1,7.24-7.27Zm2.38,35.23H171.3c-1.56-6.64,1.73-12.1,3.92-17.82a4.2,4.2,0,0,0,.22-.55,8.44,8.44,0,0,0,.32-1.71q0-3.82,0-7.65c0-1.74-.92-2.78-2.36-2.78s-2.33,1-2.35,2.78c0,1.4,0,2.8,0,4.21h-4.71v-8.86c0-1.75-.87-2.81-2.3-2.84s-2.39,1-2.41,2.87c0,1.36,0,2.72,0,4.08h-4.71V143.3c0-3.24,0-6.48,0-9.72,0-1.72-.95-2.77-2.38-2.75s-2.31,1.08-2.32,2.81,0,3.63,0,5.45v3.43H147.5V120.25a9,9,0,0,0,0-1.47,2.22,2.22,0,0,0-2.28-2.07,2.25,2.25,0,0,0-2.36,2,6.46,6.46,0,0,0,0,1.32v29.55h-4.74v-7h-1.39c-2.58,0-3.29.71-3.29,3.33,0,2.26,0,4.52,0,6.77a4.29,4.29,0,0,0,.54,1.92c1.62,2.8,3.24,5.6,5,8.31a8.39,8.39,0,0,1,1.53,5.52C140.32,170,140.43,171.48,140.43,173.12ZM152.34,119c4.74,0,9.49,0,14.24,0,1.31,0,2.1-1.07,2.12-2.54,0-2.79,0-5.59,0-8.39,0-2.4-.75-3.16-3.15-3.16H124.33c-1.72,0-2.7.83-2.73,2.39,0,3.14,0,6.29,0,9.43a2.18,2.18,0,0,0,2.22,2.28c4.7,0,9.4,0,14.09,0,1-4.71,3.53-7.11,7.36-7.06S151.51,114.53,152.34,119Z"/><path class="cls-1" d="M148.86,27.66a31.61,31.61,0,1,1-.39,63.21c-17.19-.05-31.33-14.43-31.28-31.81A31.73,31.73,0,0,1,148.86,27.66Zm25.8,31.65a25.86,25.86,0,1,0-26,25.81A26,26,0,0,0,174.66,59.31Z"/><path class="cls-2" d="M99.87,56.51v5.54H94.34V56.51Z"/><path class="cls-2" d="M54.05,142.5V137h5.57v5.54Z"/><path class="cls-2" d="M111.42,56.5V62h-5.6V56.5Z"/><path class="cls-2" d="M54.1,148.42h5.54V154H54.1Z"/><path class="cls-2" d="M59.62,165.49H54.11V160h5.51Z"/><path class="cls-2" d="M65.55,165.49V160h5.56v5.54Z"/><path class="cls-2" d="M82.6,165.49H77.05V160H82.6Z"/><path class="cls-2" d="M94.09,165.49H88.54V160h5.55Z"/><path class="cls-2" d="M100.07,159.91h5.54v5.53h-5.54Z"/><path class="cls-2" d="M117.06,165.51h-5.51v-5.59h5.51Z"/><path class="cls-2" d="M73.61,70.81q0,6.8,0,13.6c0,2.33-.78,3.1-3.15,3.1H43.1c-2.14,0-3-.84-3-3q0-13.83,0-27.65c0-2,.86-2.88,2.93-2.88H70.69c2,0,2.91.88,2.91,2.91Q73.62,63.86,73.61,70.81ZM59.18,68.44H54.55v4.61h4.63Zm9.53,4.65V68.43H64.12v4.66ZM49.57,82.66V78.05H45v4.61Zm5-4.66v4.6h4.59V78Zm9.55,0v4.65H68.7V78ZM49.6,63.51V58.88H45v4.63Zm9.57-4.63H54.56v4.59h4.61Zm4.89,4.6h4.65V58.91H64.06ZM44.94,73H49.6V68.45H44.94Z"/><path class="cls-2" d="M158,48.63l4.36,4.09-9.2,9.18c-1.65,1.65-3.28,3.32-5,4.94-1.33,1.28-2.8,1.52-4,.37-3-2.85-5.8-5.84-8.75-8.84l4-3.78,6.19,6.6Z"/></svg>