<svg id="Layer_1" data-name="Layer 1" xmlns="http://www.w3.org/2000/svg" width="200" height="200" viewBox="0 0 200 200"><defs><style>.cls-1{fill:#eeba34;}.cls-2{fill:#ffe4a9;}.cls-3{fill:#860000;}</style></defs><title>Icons</title><path class="cls-1" d="M109.49,112.62a41.14,41.14,0,0,1,41.14-41.14A12.66,12.66,0,0,0,138,58.82H62A12.66,12.66,0,0,0,49.36,71.48,41.14,41.14,0,0,1,90.5,112.62v1.81l9.5-1.81,9.49,1.81Z"/><path class="cls-1" d="M74.68,46.16h50.63a6.33,6.33,0,0,1,6.33,6.33v6.33H68.35V52.49A6.33,6.33,0,0,1,74.68,46.16Z"/><circle class="cls-2" cx="100" cy="84.14" r="12.66"/><path class="cls-2" d="M109.49,112.62a41.15,41.15,0,0,0,70.23,29.09L121.55,83.54a41.1,41.1,0,0,0-12.06,29.08Z"/><path class="cls-1" d="M138,115.79l12.66,25.32H125.31Z"/><circle class="cls-1" cx="137.97" cy="96.8" r="6.33"/><path class="cls-1" d="M157,103.13l19,38H138Z"/><path class="cls-2" d="M8.22,112.62a41.14,41.14,0,0,0,70.22,29.09L20.28,83.54A41.1,41.1,0,0,0,8.22,112.62Z"/><path class="cls-1" d="M36.7,115.79l12.66,25.32H24Z"/><circle class="cls-1" cx="36.7" cy="96.8" r="6.33"/><path class="cls-1" d="M55.69,103.13l19,38h-38Z"/><path class="cls-3" d="M153.48,68.48A15.82,15.82,0,0,0,138,55.66h-3.16V52.49a9.49,9.49,0,0,0-9.5-9.49H74.68a9.49,9.49,0,0,0-9.5,9.49v3.17H62A15.82,15.82,0,0,0,46.51,68.48a44.3,44.3,0,1,0,46.94,48.61l6.55-1.3,6.55,1.23a44.3,44.3,0,1,0,46.93-48.54Zm-82-16a3.17,3.17,0,0,1,3.17-3.16h50.63a3.17,3.17,0,0,1,3.17,3.16v3.17h-57ZM62,62H138a9.49,9.49,0,0,1,9,6.52,44.11,44.11,0,0,0-31.11,17V84.14a15.83,15.83,0,0,0-31.65,0V85.5a44.11,44.11,0,0,0-31.23-17A9.48,9.48,0,0,1,62,62Zm47.47,22.15A9.5,9.5,0,1,1,100,74.65,9.5,9.5,0,0,1,109.49,84.14Zm-82.92,58.8a1.69,1.69,0,0,0,.29-.41l9.84-19.65,2.79,5.57-5.6,11.23A3.17,3.17,0,1,0,39.31,143a4.11,4.11,0,0,0,.21-.42l16.17-32.31,16.17,32.31a1.69,1.69,0,0,0,.29.41A37.74,37.74,0,0,1,26.57,142.94ZM77,138.61l-18.45-36.9a3.17,3.17,0,0,0-5.64,0L43,121.36l-3.51-7A3.17,3.17,0,0,0,35.26,113a3.13,3.13,0,0,0-1.37,1.37L21.76,138.61a38,38,0,1,1,55.2,0Zm22.47-29.15-5.76,1.14a43.83,43.83,0,0,0-2.85-13.67,15.82,15.82,0,0,0,18.54,0,43.82,43.82,0,0,0-2.84,13.67l-6-1.14a2.2,2.2,0,0,0-1.14,0Zm28.48,33.42a1.86,1.86,0,0,0,.28-.41L138,122.88l2.79,5.57-5.6,11.23a3.17,3.17,0,1,0,5.42,3.27,4.11,4.11,0,0,0,.21-.42L157,110.22l16.17,32.31a1.69,1.69,0,0,0,.29.41,37.73,37.73,0,0,1-45.57,0Zm50.38-4.34-18.51-36.83a3.17,3.17,0,0,0-5.64,0l-9.84,19.65-3.51-7a3.17,3.17,0,0,0-4.26-1.37,3.13,3.13,0,0,0-1.37,1.37L123,138.61a38,38,0,1,1,55.19,0Z"/><path class="cls-3" d="M138,87.31a9.49,9.49,0,1,0,9.5,9.49A9.49,9.49,0,0,0,138,87.31ZM138,100a3.16,3.16,0,1,1,3.17-3.16A3.15,3.15,0,0,1,138,100Z"/><path class="cls-3" d="M177.69,103.13A3.16,3.16,0,0,0,179.11,99a31.93,31.93,0,0,0-14.87-14.88,3.17,3.17,0,1,0-2.72,5.73h0a25.13,25.13,0,0,1,11.93,11.93,2.86,2.86,0,0,0,4.24,1.33Z"/><circle class="cls-3" cx="179.11" cy="112.62" r="3.16"/><path class="cls-3" d="M36.7,87.31a9.49,9.49,0,1,0,9.5,9.49A9.49,9.49,0,0,0,36.7,87.31Zm0,12.65a3.16,3.16,0,1,1,3.17-3.16A3.15,3.15,0,0,1,36.7,100Z"/><path class="cls-3" d="M76.42,103.13A3.16,3.16,0,0,0,77.84,99,31.93,31.93,0,0,0,63,84.14a3.17,3.17,0,1,0-2.72,5.73h0A25.13,25.13,0,0,1,72.18,101.8a2.86,2.86,0,0,0,4.24,1.33Z"/><circle class="cls-3" cx="77.84" cy="112.62" r="3.16"/></svg>