<svg id="Layer_1" data-name="Layer 1" xmlns="http://www.w3.org/2000/svg" width="200" height="200" viewBox="0 0 200 200"><defs><style>.cls-1{fill:#eeba34;}.cls-2{fill:#860000;}.cls-3{fill:#fbfcfc;}.cls-4{fill:#005980;}.cls-5{fill:#fcfdfd;}.cls-6{fill:#addbe5;}.cls-7{fill:#f3f7f9;}.cls-8{fill:#fefefe;}</style></defs><title>Icons</title><path class="cls-1" d="M94.87,39.15a60.31,60.31,0,0,1,32.34,11.1,66.74,66.74,0,0,1,11.11,10c-1.08,4.06-1.08,8.2-1,12.36,0,.81.4,1.84-.25,2.41a29.92,29.92,0,0,1-3.55,2.41c-.23.14-.46,0-.67-.16-1.93-1.69-4.06-1.44-6.25-.62a1.9,1.9,0,0,0-1.41,2,6,6,0,0,1-4.09,6.91,1.33,1.33,0,0,0-.38.23c-.59.51-1,.53-1.74,0-1.84-1.35-3.93-1.11-5.93-.29-1.68.7-1.5,2.26-1.51,3.69a10,10,0,0,0,0,1.34,2,2,0,0,1-1.12,2.06c-2.26,1.42-4.47,2.91-6.71,4.36a3.28,3.28,0,0,0-1.45,1.45,67.46,67.46,0,0,0-2.59,8.33c-.3,1.21.36,1.78,1.6,1.6a6.61,6.61,0,0,0,1.28-.36c8.41-3,16.83-6,25.23-9.09a22.42,22.42,0,0,1,8-1.53c1.33,0,1.67.43,1.64,1.71-.13,6.28-.38,12.58,2.12,18.55.58,1.4.09,2.11-1.18,2.77-3.32,1.74-6.6,3.59-9.87,5.43-1.57.89-1.72,1.65-1,3.32a2.66,2.66,0,0,0,2.81,1.7c3.37,0,6.73,0,10.09,0,1,0,1.36.35,1.46,1.21a7,7,0,0,0,1,3.21,62.24,62.24,0,0,1-22.84,20.21,8,8,0,0,0-1.07.76c-.94,0-1.89-.07-2.82,0-1.09.09-1.35-.38-1.28-1.38.17-2.11.24-4.24.37-6.36.05-.84-.21-1.55-1.1-1.64-1.11-.11-1.11-.72-.93-1.53a7.73,7.73,0,0,0-.83-5.32c-1.37-2.61-4.07-3.58-7-3.56-2.15,0-3,1.3-4.18,2.52a.61.61,0,0,0,.16,1c1.12.66,2.26,1.3,3.4,1.91a.59.59,0,0,0,.88-.28,8.38,8.38,0,0,0,.88-2.64c0-1.43.65-1.3,1.55-.88a13.09,13.09,0,0,1,1.41.8c.63.38.84.53,0,1.14-1.37,1-3.28,1.37-3.93,3.34-.23.69-.43,1.2.33,1.36,1.2.23,2.38,1.74,3.54.51a2.92,2.92,0,0,0,.32-2.69c-.29-.72-.09-1.15.68-1.28a1,1,0,0,1,1.27.89,9.51,9.51,0,0,1,.08,3.53c-.16.78-.38,1-1.19,1.1-1.42.09-1.85.77-1.72,2.17.18,2,.27,3.94.46,5.9.09,1-.19,1.46-1.28,1.38s-2.08,0-3.11,0c-1.32-.07-1.94.44-1.87,1.81.05,1.09,0,2.17,0,3.26a20.44,20.44,0,0,1-4.27.52,12,12,0,0,0-2.07-5.47,3.31,3.31,0,0,1-.73-2.3q0-18.24,0-36.48c0-2.56,0-2.6-2.54-2.6H31.69a65.06,65.06,0,0,1-1.53-17.21,59.6,59.6,0,0,1,9.06-29.23c0,5.84.16,11.68.06,17.51-.09,5,1.95,8.45,6.44,10.52a1.17,1.17,0,0,1,.81,1.08c.23,2,1.26,3.16,2.79,3.31,1.75.16,3-.71,3.54-2.68.18-.63.37-.9,1.06-.9q11.2,0,22.41,0c.64,0,.92.16,1.06.87a3.11,3.11,0,0,0,3.34,2.71c1.69-.13,2.72-1.22,2.86-3.18a1.21,1.21,0,0,1,.83-1.21C88.94,94.57,91,91,91,86.21c0-7.32,0-14.64,0-22a2.13,2.13,0,0,1,1.14-2c.4-.26.7-.3,1,0s.33.61.1,1c-1.1,2.07-1,2.65.57,4.28q5,5.25,10,10.53a2.69,2.69,0,0,0,4.06.3,25.39,25.39,0,0,0,2.24-2.16,2.59,2.59,0,0,0,0-4c-3.51-3.7-7-7.36-10.59-11A2.48,2.48,0,0,0,96,60.74c-.53.32-.91.5-1.4-.05s-.26-.83.05-1.29C99.21,52.71,99.12,46,94.87,39.15Z"/><path class="cls-2" d="M31.69,114.92H93.23c2.5,0,2.53,0,2.54,2.6q0,18.24,0,36.48a3.31,3.31,0,0,0,.73,2.3,12,12,0,0,1,2.07,5.47c0,.89,0,1.78,0,2.67a1.15,1.15,0,0,0,.65,1.2,2.67,2.67,0,0,1,1.36,2.61c0,2.47,0,4.95,0,7.42a2.59,2.59,0,0,1-2.12,2.81,1,1,0,0,0-.94,1,4.38,4.38,0,0,1-4.38,3.88c-1.33.07-2.67.06-4,0a4.35,4.35,0,0,1-4.42-3.81c-.15-.85-.51-1-1.26-1q-23.15,0-46.3,0c-.88,0-1.15.27-1.31,1.12a4.29,4.29,0,0,1-4.22,3.68,34.27,34.27,0,0,1-4.3,0A4.39,4.39,0,0,1,23,179.26c-.05-.38,0-.79-.43-1-1.25-.71-1.43-1.88-1.4-3.19,0-2.27,0-4.55,0-6.82a2.32,2.32,0,0,1,.92-2.23,2.16,2.16,0,0,0,1.09-2.33,11.8,11.8,0,0,1,2.11-7.42,2.76,2.76,0,0,0,.33-1.85q0-18.62,0-37.24c0-2.07.1-2.15,2.19-2.17ZM28.06,117c-.18-.27-.23-.13-.27.08V154c1.79-.45,1.79-.45,1.79-2.09,0-3.12,0-6.24,0-9.35a5.07,5.07,0,0,1,3.29-5c4.4-1.88,8.77-3.86,13.21-5.67a38.41,38.41,0,0,1,27.26-.79c5.45,1.79,10.57,4.44,15.86,6.63a4.81,4.81,0,0,1,2.94,4.76c0,3.22,0,6.43,0,9.65,0,.76-.09,1.64,1,1.61s.52-1,.52-1.45c0-11.18,0-22.36,0-33.54,0-1.31-.26-1.74-1.67-1.73q-31.09.08-62.18,0C29.24,117.07,28.65,117,28.06,117ZM90,147.24c0-1.58,0-3.17,0-4.75a3,3,0,0,0-2-3c-4.55-1.92-9-4-13.66-5.77a36.31,36.31,0,0,0-27.48.16c-4.45,1.8-8.82,3.77-13.23,5.66a2.88,2.88,0,0,0-1.89,2.89c0,3.22,0,6.44,0,9.65,0,.33-.1.71.21,1,.74.63,3-.06,3.23-1a8.71,8.71,0,0,1,8.61-6.62c2.32,0,4.65,0,7,0a8.57,8.57,0,0,1,8.58,6.61c.3,1.21.93,1.11,1.77,1.14s1.47-.08,1.75-1.21a8.58,8.58,0,0,1,8.49-6.54c1.53,0,3.07-.06,4.6,0,3.52.15,6.46,1.73,7.54,5,.86,2.61,2.23,3,4.45,2.7a3.32,3.32,0,0,1,.89,0c1,.13,1.19-.32,1.16-1.19C90,150.41,90,148.82,90,147.24ZM60.81,165.3H93.45c3.27,0,3.27,0,2.92-3.35-.48-4.45-2.91-6.67-7.32-6.67H32.37c-3.66,0-5.81,1.69-6.73,5.24a18.56,18.56,0,0,0-.35,3.23c-.1,1.22.27,1.59,1.54,1.58C38.15,165.28,49.48,165.3,60.81,165.3Zm.06,2.09c-12,0-23.94,0-35.91,0-1.28,0-1.77.32-1.69,1.66.11,1.77,0,3.55,0,5.33,0,2.08,0,2.08,2.11,2.08H96.33a6.09,6.09,0,0,1,.74,0c1,.11,1.42-.28,1.39-1.34-.07-2-.11-4,0-5.93.09-1.48-.46-1.81-1.85-1.81C84.7,167.41,72.78,167.39,60.87,167.39ZM47.21,153.18c3,0,6-.06,9,0,1.27,0,1.25-.43.87-1.35a6.39,6.39,0,0,0-5.72-4.28c-2.76-.16-5.54-.11-8.3,0a6.61,6.61,0,0,0-5.73,4.49c-.26.79-.2,1.15.79,1.13C41.18,153.14,44.2,153.18,47.21,153.18Zm26.14,0c2.57,0,5.14-.06,7.7,0,1.3.05,1.24-.48.89-1.39a6.66,6.66,0,0,0-5.89-4.26c-1.68-.06-3.36-.06-5,0a6.75,6.75,0,0,0-6,4.53c-.26.81-.17,1.15.8,1.13C68.31,153.14,70.83,153.18,73.35,153.18Zm17.76,25.44c-1,0-2,0-3,0-.45,0-1.08-.28-1.31.32a1.57,1.57,0,0,0,.53,1.6,2.28,2.28,0,0,0,1.71.75c1.32,0,2.65,0,4,0a2.37,2.37,0,0,0,2.18-1.51c.33-.76.25-1.22-.75-1.18S92.24,178.62,91.11,178.62Zm-61.74,0c-.93,0-1.87,0-2.8,0-.49,0-1.2-.33-1.41.36a1.7,1.7,0,0,0,.64,1.57,1.86,1.86,0,0,0,1.28.67c1.57,0,3.15.09,4.72,0a2.05,2.05,0,0,0,1.79-1.36c.34-.79.25-1.32-.82-1.28S30.5,178.62,29.37,178.62Z"/><path class="cls-2" d="M94.87,39.15c4.25,6.8,4.34,13.56-.25,20.25-.31.46-.5.8-.05,1.29s.87.37,1.4.05a2.48,2.48,0,0,1,3.57.43c3.55,3.66,7.08,7.32,10.59,11a2.59,2.59,0,0,1,0,4,25.39,25.39,0,0,1-2.24,2.16,2.69,2.69,0,0,1-4.06-.3q-5-5.28-10-10.53c-1.57-1.63-1.67-2.21-.57-4.28.23-.43.24-.72-.1-1s-.64-.3-1,0a2.13,2.13,0,0,0-1.14,2c0,7.33,0,14.65,0,22,0,4.83-2,8.36-6.55,10.3a1.21,1.21,0,0,0-.83,1.21c-.14,2-1.17,3-2.86,3.18a3.11,3.11,0,0,1-3.34-2.71c-.14-.71-.42-.87-1.06-.87q-11.2,0-22.41,0c-.69,0-.88.27-1.06.9-.56,2-1.79,2.84-3.54,2.68-1.53-.15-2.56-1.32-2.79-3.31a1.17,1.17,0,0,0-.81-1.08c-4.49-2.07-6.53-5.57-6.44-10.52.1-5.83,0-11.67-.06-17.51,0-3.06.06-6.13.07-9.19a25.36,25.36,0,0,1,3.33-12.62,2.77,2.77,0,0,1,1-1.28c.07,1.68.37,3.2-.36,4.8a21.8,21.8,0,0,0-1.88,9.23q0,13.5,0,27a8.57,8.57,0,0,0,4.43,7.85c.53.33.68.27,1-.17a5.34,5.34,0,0,0,.82-3c0-13.2,0-26.41,0-39.62A12.75,12.75,0,0,0,43.5,42c-.8-.76-.49-1.15,0-1.79.73-.91,1.19-.15,1.48.29.92,1.37,1.56.9,2.57,0a25.27,25.27,0,0,1,23.24-6.26c1.66.34,2.67-.8,3.93-1.31.75-.31.3-1.35.32-2,0-2,0-4.05,0-6.08,0-.34,0-.94-.13-1-2.19-.68-3.22-3.41-6.26-2.88s-6.31.14-9.48.11c-1.06,0-1.88.15-2,1.41,0,.43-.29.9-.65.92-1.56.09-1.21,1.21-1.22,2.13,0,2.67,0,5.34,0,8,0,.9-.22,1.2-1.16,1.2s-1-.44-1-1.18c0-2.87,0-5.74,0-8.61,0-.73,0-1.42-1-1.44a.77.77,0,0,1-.52-.26c-1.29-1.8-.68-3.82-.49-5.72.14-1.41,1.54-1.24,2.63-1.24H76.56c2.09,0,2.55.46,2.56,2.49,0,.84,0,1.69,0,2.53,0,1.08-.15,2-1.39,2.26-.61.14-.56.6-.56,1v6.68c0,.61,0,1,.89.91C85,31.24,90.56,33.71,94.87,39.15ZM69.22,36.28C69.08,36.13,69,36,69,36a23.37,23.37,0,0,0-21,7,.91.91,0,0,0-.12,1.29,17.54,17.54,0,0,1,1.84,8.61c0,9.5,0,19,0,28.5,0,.83-.1,1.48,1.16,1.47q14.25-.09,28.51,0c1,0,1.21-.38,1.2-1.29,0-4.65,0-9.3,0-14,0-.9-.27-1.13-1.15-1.25-9.19-1.22-14.83-6.95-15.83-16.07-.09-.85-.36-1.06-1.16-1-2.62,0-5.24,0-7.86,0-.8,0-1.61,0-1.59-1.07s.86-1,1.63-1c2.63,0,5.25,0,7.87,0,.85,0,1.21-.2,1.35-1.09a17.72,17.72,0,0,1,5.4-9.78ZM95.83,49.19A15.09,15.09,0,1,0,80.61,64.25,15,15,0,0,0,95.83,49.19ZM65,95.21h3.56c3.86,0,7.72,0,11.58,0,.4,0,1.43.32,1-.61-1.09-2.65-.57-5.38-.62-8.08,0-1.23-.22-1.67-1.61-1.66q-13.73.12-27.46,0c-1.48,0-1.9.31-1.87,1.84,0,2.45.5,5-.5,7.34-.5,1.16,0,1.19.89,1.19C55,95.2,60,95.21,65,95.21ZM88.64,64.53a17.67,17.67,0,0,1-5,1.6c-.88.1-1,.51-1,1.25q0,12,0,24a4.82,4.82,0,0,0,.85,2.78c.24.35.35.47.87.15a8.78,8.78,0,0,0,4.49-8.12c0-6.72,0-13.44,0-20.16A2.73,2.73,0,0,0,88.64,64.53Zm20.22,9.83a1.59,1.59,0,0,0-.66-1.07q-4.38-4.62-8.79-9.25c-1.86-2-1.83-1.91-3.87,0-.87.81-1,1.34-.11,2.26,3.16,3.2,6.23,6.49,9.36,9.73.4.41.75,1.35,1.49.85A10.88,10.88,0,0,0,108.86,74.36Zm-43.8-56c-3.41,0-6.82.08-10.22,0-1.41-.05-1.88.42-1.66,1.73.08.48-.31,1.22.48,1.35s1.44.33,1.89-.63a3.23,3.23,0,0,1,3.28-1.82c3.51,0,7,.05,10.52,0,2.12,0,4,.3,5.37,2.16a1.45,1.45,0,0,0,1.9.25c.91-.55.34-1.61.38-2.44s-.68-.54-1.13-.55ZM50.74,97.7c-.23-.71-.87-.33-1.32-.39s-.84,0-.71.6a1,1,0,0,0,1.15.86A1,1,0,0,0,50.74,97.7Zm30.74.23c.08-.66-.37-.66-.76-.62s-1.12-.3-1.23.41a.91.91,0,0,0,1,1.06A1,1,0,0,0,81.48,97.93Z"/><path class="cls-2" d="M142.74,135.23a7,7,0,0,1-1-3.21c-.1-.86-.5-1.23-1.46-1.21-3.36.06-6.72,0-10.09,0a2.66,2.66,0,0,1-2.81-1.7c-.7-1.67-.55-2.43,1-3.32,3.27-1.84,6.55-3.69,9.87-5.43,1.27-.66,1.76-1.37,1.18-2.77-2.5-6-2.25-12.27-2.12-18.55,0-1.28-.31-1.69-1.64-1.71a22.42,22.42,0,0,0-8,1.53c-8.4,3-16.82,6.06-25.23,9.09a6.61,6.61,0,0,1-1.28.36c-1.24.18-1.9-.39-1.6-1.6a67.46,67.46,0,0,1,2.59-8.33A3.28,3.28,0,0,1,103.67,97c2.24-1.45,4.45-2.94,6.71-4.36a2,2,0,0,0,1.12-2.06,10,10,0,0,1,0-1.34c0-1.43-.17-3,1.51-3.69,2-.82,4.09-1.06,5.93.29.74.55,1.15.53,1.74,0a1.33,1.33,0,0,1,.38-.23,6,6,0,0,0,4.09-6.91,1.9,1.9,0,0,1,1.41-2c2.19-.82,4.32-1.07,6.25.62.21.18.44.3.67.16A29.92,29.92,0,0,0,137,75c.65-.57.26-1.6.25-2.41,0-4.16,0-8.3,1-12.36a47.44,47.44,0,0,1,2.78-8.12,10.23,10.23,0,0,1,1.7-2.6,3,3,0,0,1,4.76,0,12,12,0,0,1,2.24,3.82,44.74,44.74,0,0,1,3.26,19c-.05.9-.46,2,.25,2.7a27.33,27.33,0,0,0,3.55,2.41c.28.19.45,0,.61-.15,1.09-1.32,2.61-1.35,4.08-1.23,2.89.23,3.75,1,3.64,3.87-.09,2.31.62,3.86,2.75,4.77a7.88,7.88,0,0,1,1.12.72c.87.61,1.51,1.26,2.68.1s4.69-.78,6.08.22a1.88,1.88,0,0,1,.84,1.34,2.36,2.36,0,0,1,0,.59c-.47,3.21.94,5.29,3.83,6.56a11.82,11.82,0,0,1,7.41,9.73,12.42,12.42,0,0,0,.68,2.28,1.48,1.48,0,0,1-.26,1.77,1.61,1.61,0,0,1-1.81.11l-10-3.59c-5.87-2.1-11.73-4.17-17.58-6.31a19.55,19.55,0,0,0-6.87-.89c-.93,0-.87.54-.87,1.16a111.7,111.7,0,0,1-.36,11.57,37.56,37.56,0,0,1-2,7.89c-.37,1.16,0,1.66,1,2.18,3.4,1.82,6.75,3.73,10.14,5.57,1.06.58,1.78,1.28,1.44,2.58-.44,1.72-1.17,2.37-2.73,2.38-3.37,0-6.73.06-10.1,0-1.29,0-1.88.3-1.95,1.65a4.33,4.33,0,0,1-.89,2.77C146.49,136.49,144.74,136.53,142.74,135.23Zm40.86-30.69c.06,0,.15.14.17.12s.08-.19,0-.28a3.48,3.48,0,0,0-2.29-1.94c-1.64-.67-3.3-1.32-5-2l-14.72-5.91c-.74-.3-1.49-.45-1.88.47s.3,1.26,1.06,1.53c2.52.88,5,1.8,7.54,2.69ZM139.4,87.23q0,9.49,0,19a23.66,23.66,0,0,0,.53,5.3c.91,4,2.48,7.92,2.91,12.08.28,2.8.65,5.6,1,8.38.13.86,0,2.11,1.37,2.08s1.11-1.19,1.26-2,.25-1.76.36-2.65c.59-4.85,1.07-9.73,2.68-14.39a26.57,26.57,0,0,0,1.38-8.75c0-12.76.07-25.52,0-38.28a36.65,36.65,0,0,0-3.72-15.14c-.44-1-.89-2.29-2.08-2.26s-1.56,1.3-2,2.22a37.81,37.81,0,0,0-3.71,15.15C139.31,74.37,139.4,80.8,139.4,87.23Zm-2.1-9.5a2.48,2.48,0,0,0-.59.19q-15.95,10.41-31.89,20.84c-.28.18-.63.41-.73.7-.68,2-1.31,4.07-2,6.19a2.09,2.09,0,0,0,2.23-1.6,5.12,5.12,0,0,1,3.07-3.24q10.36-4.22,20.75-8.35c1.65-.66,3.53-.09,4,1.44s1.27,1.6,2.48,1.46a8.07,8.07,0,0,1,1.63,0c.77.06,1-.24,1-1C137.29,88.86,137.3,83.37,137.3,77.73Zm50.91,28c-.56-1.85-1.1-3.53-1.57-5.23a3.2,3.2,0,0,0-1.46-1.94Q169.7,88.44,154.24,78.33c-.34-.22-.62-.68-1.2-.44V91.83c0,3.72,0,3.71,3.7,3.53.54,0,.84-.11,1.07-.72.84-2.23,2.42-2.94,4.57-2.09q10.13,4,20.23,8.1A5.46,5.46,0,0,1,186,104,2.24,2.24,0,0,0,188.21,105.69Zm-33.05,22.92h5c.34,0,.73.05.88-.36s-.28-.68-.6-.86c-3.18-1.77-6.39-3.52-9.56-5.31-.73-.41-.95-.17-1,.52-.22,1.67-.42,3.33-.67,5-.11.76.12,1.06.93,1C151.8,128.57,153.48,128.6,155.16,128.61Zm-19.92,0c1.58,0,3.17-.07,4.75,0,1.1.06,1.37-.35,1.2-1.37-.25-1.51-.42-3-.62-4.55-.09-.7-.23-1.11-1.09-.61-3.14,1.79-6.31,3.51-9.46,5.27-.32.18-.83.29-.68.82s.61.41,1,.42Zm-28.89-23.84,14.79-5.29,8.52-3c.4-.15.88-.23.87-.85a1.16,1.16,0,0,0-.57-1.12,1.73,1.73,0,0,0-1.56.13l-19.82,8A3.72,3.72,0,0,0,106.35,104.77Zm70.24-14.36c.46-3.24-.29-3.57-3-3.31-.27,0-.61.08-.7.43s.15.54.41.71Zm-62.87,0c1.24-.81,2.33-1.47,3.36-2.2.66-.47.49-.85-.25-1.1C114.61,86.39,113.49,87.45,113.72,90.42Zm49.34-8.87c.26-3-.75-4-3.11-3.25-.23.07-.5.07-.59.35a.6.6,0,0,0,.34.73Zm-35.72-.19a15.57,15.57,0,0,0,3.37-2.09c.63-.45.33-.87-.33-1C127.87,78,126.69,78.16,127.34,81.36Z"/><path class="cls-2" d="M102.83,161.25c0-1.09.1-2.17,0-3.26-.07-1.37.55-1.88,1.87-1.81,1,0,2.08-.05,3.11,0s1.37-.37,1.28-1.38c-.19-2-.28-3.93-.46-5.9-.13-1.4.3-2.08,1.72-2.17.81-.06,1-.32,1.19-1.1a9.51,9.51,0,0,0-.08-3.53,1,1,0,0,0-1.27-.89c-.77.13-1,.56-.68,1.28a2.92,2.92,0,0,1-.32,2.69c-1.16,1.23-2.34-.28-3.54-.51-.76-.16-.56-.67-.33-1.36.65-2,2.56-2.35,3.93-3.34.85-.61.64-.76,0-1.14a13.09,13.09,0,0,0-1.41-.8c-.9-.42-1.53-.55-1.55.88a8.38,8.38,0,0,1-.88,2.64.59.59,0,0,1-.88.28c-1.14-.61-2.28-1.25-3.4-1.91a.61.61,0,0,1-.16-1c1.15-1.22,2-2.51,4.18-2.52,3,0,5.66,1,7,3.56a7.73,7.73,0,0,1,.83,5.32c-.18.81-.18,1.42.93,1.53.89.09,1.15.8,1.1,1.64-.13,2.12-.2,4.25-.37,6.36-.07,1,.19,1.47,1.28,1.38.93-.08,1.88,0,2.82,0,.44,0,.89,0,1.33,0,1,0,1.45.42,1.45,1.43q0,9.43,0,18.85c0,.9-.36,1.44-1.31,1.38-.73,0-.79.36-.78.92,0,1.14,0,2.28,0,3.41s-.37,1.56-1.47,1.56q-5.79,0-11.58,0c-1.07,0-1.54-.47-1.5-1.53,0-.84,0-1.68,0-2.52s.34-2-1.32-1.95c-.85,0-.76-1-.76-1.68V162.88C102.9,162.34,102.85,161.79,102.83,161.25Zm16.69,5.89c0-2.52,0-5,0-7.57,0-.9-.14-1.31-1.19-1.29-4,.06-8.11.05-12.16,0-.85,0-1.22.14-1.21,1.12,0,5.09,0,10.19,0,15.28,0,.79.14,1.14,1,1.13q6.23-.07,12.46,0c.88,0,1.07-.3,1-1.11C119.49,172.18,119.52,169.66,119.52,167.14Zm-7.14,14.53h2.52c2.58,0,2.53,0,2.56-2.58,0-1-.29-1.26-1.26-1.23-2.17.07-4.34,0-6.51,0-2.76,0-2.73,0-2.63,2.8,0,.77.26,1,1,1C109.52,181.64,111,181.67,112.38,181.67Zm.87-30.88h0a5.15,5.15,0,0,1,0-1c.23-1.17-.41-1.29-1.35-1.26s-1.55-.07-1.41,1.21c.21,1.91.28,3.83.35,5.76,0,.78.34,1,1.08,1s1-.24,1-.94C113,153.93,113.15,152.36,113.25,150.79Zm-8.3-12c0-.56-.28-.89-.79-.88a1,1,0,0,0-1,1,.76.76,0,0,0,.73.91C104.67,139.86,104.77,139.27,105,138.79Zm2.79,3.79a.69.69,0,0,0-.6.71.47.47,0,0,0,.53.54.59.59,0,0,0,.53-.6A.53.53,0,0,0,107.74,142.58Z"/><path class="cls-2" d="M91.91,23.09c-1.58,0-3.15,0-4.73,0-.74,0-1.33-.18-1.39-1S86.27,21.06,87,21a63.9,63.9,0,0,1,9.88,0c.69,0,1.18.34,1.18,1s-.56,1.06-1.3,1.06c-1.63,0-3.25,0-4.87,0Z"/><path class="cls-2" d="M107.38,22.41a67.72,67.72,0,0,1,10.11,2.75.94.94,0,0,1,.59,1.32,1,1,0,0,1-1.32.62,85.39,85.39,0,0,0-9.68-2.62,1,1,0,0,1-.88-1.18A1.06,1.06,0,0,1,107.38,22.41Z"/><path class="cls-2" d="M12.28,93a91.82,91.82,0,0,1,1.63-10c.15-.69.52-1.24,1.33-1s.91.78.74,1.5a79.25,79.25,0,0,0-1.54,9.33c-.08.77-.34,1.42-1.23,1.29A1,1,0,0,1,12.28,93Z"/><path class="cls-2" d="M17,72.51c.47-1.14,1-2.52,1.61-3.86.82-1.79,1.69-3.55,2.58-5.31a1,1,0,0,1,1.46-.54,1,1,0,0,1,.39,1.52,86.7,86.7,0,0,0-4.08,9,1,1,0,0,1-1.28.71C17.09,73.85,16.9,73.37,17,72.51Z"/><path class="cls-2" d="M21,133a1,1,0,0,1-.82,1.11c-.72.13-1.09-.34-1.33-.93-.9-2.28-1.81-4.57-2.69-6.87-.3-.78-.54-1.59-.78-2.39a1,1,0,0,1,.7-1.41,1,1,0,0,1,1.27.7,92.35,92.35,0,0,0,3.55,9.39A2.34,2.34,0,0,1,21,133Z"/><path class="cls-2" d="M141.72,162.56a1.22,1.22,0,0,1-1-.68,1.08,1.08,0,0,1,.42-1.3c1.1-1,2.24-1.92,3.32-2.93,1.25-1.18,2.46-2.41,3.68-3.63.54-.54,1.14-.89,1.77-.23s.26,1.17-.23,1.69a77.07,77.07,0,0,1-7.12,6.64A4.71,4.71,0,0,1,141.72,162.56Z"/><path class="cls-2" d="M12,105c0-.55,0-1.09,0-1.64a1,1,0,0,1,1-1.08,1,1,0,0,1,1.09,1c.15,3.36.51,6.7,1,10a1,1,0,0,1-.95,1.22c-.82,0-1.06-.57-1.17-1.26C12.51,110.47,12.19,107.72,12,105Z"/><path class="cls-2" d="M155.67,147.57a1,1,0,0,1-.86-1.56c1.92-2.81,3.74-5.68,5.4-8.64a1,1,0,0,1,1.82,1,70.07,70.07,0,0,1-5.48,8.75A1,1,0,0,1,155.67,147.57Z"/><path class="cls-2" d="M136.49,35.14a1,1,0,0,1-1.61.92q-4.24-2.75-8.72-5.06a1,1,0,0,1-.46-1.38,1,1,0,0,1,1.38-.47,68,68,0,0,1,9,5.21A.92.92,0,0,1,136.49,35.14Z"/><path class="cls-2" d="M27.65,56a1,1,0,0,1-.9-1.56,59.3,59.3,0,0,1,6-7.5,1,1,0,0,1,1.51,1.42c-2,2.29-4,4.66-5.75,7.14A1.16,1.16,0,0,1,27.65,56Z"/><path class="cls-2" d="M134.36,167.52a1,1,0,0,1-.5.85c-.87.55-1.75,1.09-2.65,1.6a1,1,0,1,1-1.07-1.78,28.63,28.63,0,0,1,2.66-1.58A1,1,0,0,1,134.36,167.52Z"/><path class="cls-3" d="M28.06,117c.59,0,1.18.07,1.78.07q31.08,0,62.18,0c1.41,0,1.68.42,1.67,1.73,0,11.18,0,22.36,0,33.54,0,.48.53,1.42-.52,1.45s-1-.85-1-1.61c0-3.22,0-6.43,0-9.65a4.81,4.81,0,0,0-2.94-4.76c-5.29-2.19-10.41-4.84-15.86-6.63a38.41,38.41,0,0,0-27.26.79c-4.44,1.81-8.81,3.79-13.21,5.67a5.07,5.07,0,0,0-3.29,5c0,3.11,0,6.23,0,9.35,0,1.64,0,1.64-1.79,2.09V117.08A.5.5,0,0,0,28.06,117Z"/><path class="cls-1" d="M90,147.24c0,1.58,0,3.17,0,4.75,0,.87-.21,1.32-1.16,1.19a3.32,3.32,0,0,0-.89,0c-2.22.31-3.59-.09-4.45-2.7-1.08-3.3-4-4.88-7.54-5-1.53-.07-3.07,0-4.6,0A8.58,8.58,0,0,0,62.88,152c-.28,1.13-.82,1.25-1.75,1.21s-1.47.07-1.77-1.14a8.57,8.57,0,0,0-8.58-6.61c-2.32,0-4.65,0-7,0a8.71,8.71,0,0,0-8.61,6.62c-.26.93-2.49,1.62-3.23,1-.31-.26-.21-.64-.21-1,0-3.21,0-6.43,0-9.65a2.88,2.88,0,0,1,1.89-2.89c4.41-1.89,8.78-3.86,13.23-5.66a36.31,36.31,0,0,1,27.48-.16c4.61,1.76,9.11,3.85,13.66,5.77a3,3,0,0,1,2,3C90,144.07,90,145.66,90,147.24Z"/><path class="cls-1" d="M60.81,165.3c-11.33,0-22.66,0-34,0-1.27,0-1.64-.36-1.54-1.58a18.56,18.56,0,0,1,.35-3.23c.92-3.55,3.07-5.24,6.73-5.24H89.05c4.41,0,6.84,2.22,7.32,6.67.35,3.35.35,3.35-2.92,3.35Z"/><path class="cls-1" d="M60.87,167.39c11.91,0,23.83,0,35.75,0,1.39,0,1.94.33,1.85,1.81-.12,2-.08,4,0,5.93,0,1.06-.38,1.45-1.39,1.34a6.09,6.09,0,0,0-.74,0H25.41c-2.11,0-2.11,0-2.11-2.08,0-1.78.08-3.56,0-5.33-.08-1.34.41-1.67,1.69-1.66C36.93,167.41,48.9,167.39,60.87,167.39Z"/><path class="cls-3" d="M47.21,153.18c-3,0-6,0-9,0-1,0-1.05-.34-.79-1.13a6.61,6.61,0,0,1,5.73-4.49c2.76-.11,5.54-.16,8.3,0a6.39,6.39,0,0,1,5.72,4.28c.38.92.4,1.38-.87,1.35C53.24,153.12,50.23,153.18,47.21,153.18Z"/><path class="cls-3" d="M73.35,153.18c-2.52,0-5,0-7.56,0-1,0-1.06-.32-.8-1.13a6.75,6.75,0,0,1,6-4.53c1.68,0,3.36,0,5,0a6.66,6.66,0,0,1,5.89,4.26c.35.91.41,1.44-.89,1.39C78.49,153.12,75.92,153.18,73.35,153.18Z"/><path class="cls-1" d="M91.11,178.62c1.13,0,2.26,0,3.39,0s1.08.42.75,1.18a2.37,2.37,0,0,1-2.18,1.51c-1.33,0-2.66,0-4,0a2.28,2.28,0,0,1-1.71-.75,1.57,1.57,0,0,1-.53-1.6c.23-.6.86-.3,1.31-.32C89.14,178.59,90.12,178.62,91.11,178.62Z"/><path class="cls-1" d="M29.37,178.62c1.13,0,2.27,0,3.4,0s1.16.49.82,1.28a2.05,2.05,0,0,1-1.79,1.36c-1.57.08-3.15,0-4.72,0a1.86,1.86,0,0,1-1.28-.67,1.7,1.7,0,0,1-.64-1.57c.21-.69.92-.33,1.41-.36C27.5,178.58,28.44,178.62,29.37,178.62Z"/><path class="cls-4" d="M28.06,117a.5.5,0,0,1-.27.08C27.83,116.87,27.88,116.73,28.06,117Z"/><path class="cls-5" d="M69.22,36.28a17.72,17.72,0,0,0-5.4,9.78c-.14.89-.5,1.11-1.35,1.09-2.62,0-5.24,0-7.87,0-.77,0-1.62,0-1.63,1s.79,1.08,1.59,1.07c2.62,0,5.24,0,7.86,0,.8,0,1.07.2,1.16,1,1,9.12,6.64,14.85,15.83,16.07.88.12,1.15.35,1.15,1.25,0,4.65,0,9.3,0,14,0,.91-.16,1.3-1.2,1.29q-14.26-.06-28.51,0c-1.26,0-1.16-.64-1.16-1.47,0-9.5,0-19,0-28.5a17.54,17.54,0,0,0-1.84-8.61A.91.91,0,0,1,48,43a23.37,23.37,0,0,1,21-7C69,36,69.08,36.13,69.22,36.28Z"/><path class="cls-1" d="M95.83,49.19a15.09,15.09,0,1,1-15-15.14A15,15,0,0,1,95.83,49.19Zm-17.55,7.2a3,3,0,0,0,2.59-1.46l7.62-11.3a3.27,3.27,0,0,0,.43-.77,1,1,0,0,0-.31-1.2,1,1,0,0,0-1.35.12,8.45,8.45,0,0,0-.79,1.07c-2.35,3.48-4.72,6.95-7,10.46-.61.93-1.12,1.21-2.11.45-1.16-.9-2.46-1.65-3.68-2.49-.65-.45-1.3-.64-1.78.13s0,1.21.57,1.6c1.44,1,2.87,1.93,4.31,2.88A2.61,2.61,0,0,0,78.28,56.39Z"/><path class="cls-3" d="M65,95.21c-5,0-10,0-15,0-.91,0-1.39,0-.89-1.19,1-2.36.55-4.89.5-7.34,0-1.53.39-1.85,1.87-1.84q13.73.11,27.46,0c1.39,0,1.58.43,1.61,1.66,0,2.7-.47,5.43.62,8.08.39.93-.64.6-1,.61-3.86,0-7.72,0-11.58,0Z"/><path class="cls-3" d="M88.64,64.53a2.73,2.73,0,0,1,.18,1.52c0,6.72,0,13.44,0,20.16a8.78,8.78,0,0,1-4.49,8.12c-.52.32-.63.2-.87-.15a4.82,4.82,0,0,1-.85-2.78q0-12,0-24c0-.74.11-1.15,1-1.25A17.67,17.67,0,0,0,88.64,64.53Z"/><path class="cls-1" d="M108.86,74.36a10.88,10.88,0,0,1-2.58,2.48c-.74.5-1.09-.44-1.49-.85-3.13-3.24-6.2-6.53-9.36-9.73-.9-.92-.76-1.45.11-2.26,2-1.87,2-1.91,3.87,0q4.41,4.62,8.79,9.25A1.59,1.59,0,0,1,108.86,74.36Z"/><path class="cls-1" d="M65.06,18.33H75.87c.45,0,1.16-.21,1.13.55s.53,1.89-.38,2.44a1.45,1.45,0,0,1-1.9-.25c-1.35-1.86-3.25-2.19-5.37-2.16-3.51.06-7,0-10.52,0a3.23,3.23,0,0,0-3.28,1.82c-.45,1-1.21.74-1.89.63s-.4-.87-.48-1.35c-.22-1.31.25-1.78,1.66-1.73C58.24,18.41,61.65,18.33,65.06,18.33Z"/><path class="cls-1" d="M50.74,97.7a1,1,0,0,1-.88,1.07,1,1,0,0,1-1.15-.86c-.13-.59.31-.65.71-.6S50.51,97,50.74,97.7Z"/><path class="cls-1" d="M81.48,97.93a1,1,0,0,1-1,.85.91.91,0,0,1-1-1.06c.11-.71.79-.36,1.23-.41S81.56,97.27,81.48,97.93Z"/><path class="cls-3" d="M139.4,87.23c0-6.43-.09-12.86,0-19.29a37.81,37.81,0,0,1,3.71-15.15c.42-.92.89-2.2,2-2.22s1.64,1.3,2.08,2.26A36.65,36.65,0,0,1,150.91,68c.1,12.76,0,25.52,0,38.28a26.57,26.57,0,0,1-1.38,8.75c-1.61,4.66-2.09,9.54-2.68,14.39-.11.89-.2,1.77-.36,2.65s0,2-1.26,2-1.24-1.22-1.37-2.08c-.4-2.78-.77-5.58-1-8.38-.43-4.16-2-8-2.91-12.08a23.66,23.66,0,0,1-.53-5.3Q139.42,96.73,139.4,87.23Zm5.88-29.52a5.12,5.12,0,0,0-3.14,1.12c-.52.4-.79.92-.35,1.52a1,1,0,0,0,1.54.2,3,3,0,0,1,3.81,0,1,1,0,0,0,1.54-.25c.44-.63.11-1.12-.4-1.51A5.4,5.4,0,0,0,145.28,57.71Z"/><path class="cls-3" d="M137.3,77.73c0,5.64,0,11.13,0,16.61,0,.78-.24,1.08-1,1a8.07,8.07,0,0,0-1.63,0c-1.21.14-2,0-2.48-1.46s-2.38-2.1-4-1.44q-10.39,4.13-20.75,8.35a5.12,5.12,0,0,0-3.07,3.24,2.09,2.09,0,0,1-2.23,1.6c.67-2.12,1.3-4.17,2-6.19.1-.29.45-.52.73-.7q15.95-10.44,31.89-20.84A2.48,2.48,0,0,1,137.3,77.73Z"/><path class="cls-3" d="M188.21,105.69A2.24,2.24,0,0,1,186,104a5.46,5.46,0,0,0-3.36-3.36q-10.11-4.07-20.23-8.1c-2.15-.85-3.73-.14-4.57,2.09-.23.61-.53.69-1.07.72-3.7.18-3.7.19-3.7-3.53V77.89c.58-.24.86.22,1.2.44q15.48,10.1,30.94,20.19a3.2,3.2,0,0,1,1.46,1.94C187.11,102.16,187.65,103.84,188.21,105.69Z"/><path class="cls-1" d="M155.16,128.6c-1.68,0-3.36,0-5,0-.81,0-1-.28-.93-1,.25-1.66.45-3.32.67-5,.09-.69.31-.93,1-.52,3.17,1.79,6.38,3.54,9.56,5.31.32.18.8.31.6.86s-.54.36-.88.36C158.51,128.61,156.84,128.61,155.16,128.6Z"/><path class="cls-1" d="M135.24,128.61h-4.9c-.39,0-.86.07-1-.42s.36-.64.68-.82c3.15-1.76,6.32-3.48,9.46-5.27.86-.5,1-.09,1.09.61.2,1.52.37,3,.62,4.55.17,1-.1,1.43-1.2,1.37C138.41,128.54,136.82,128.61,135.24,128.61Z"/><path class="cls-1" d="M106.35,104.77a3.72,3.72,0,0,1,2.23-2.21l19.82-8a1.73,1.73,0,0,1,1.56-.13,1.16,1.16,0,0,1,.57,1.12c0,.62-.47.7-.87.85l-8.52,3Z"/><path class="cls-1" d="M183.6,104.54l-15.09-5.3c-2.52-.89-5-1.81-7.54-2.69-.76-.27-1.48-.54-1.06-1.53s1.14-.77,1.88-.47l14.72,5.91c1.65.66,3.31,1.31,5,2a3.48,3.48,0,0,1,2.29,1.94Z"/><path class="cls-1" d="M176.59,90.41l-3.33-2.17c-.26-.17-.49-.37-.41-.71s.43-.4.7-.43C176.3,86.84,177.05,87.17,176.59,90.41Z"/><path class="cls-1" d="M113.72,90.42c-.23-3,.89-4,3.11-3.3.74.25.91.63.25,1.1C116.05,89,115,89.61,113.72,90.42Z"/><path class="cls-1" d="M163.06,81.55l-3.36-2.17a.6.6,0,0,1-.34-.73c.09-.28.36-.28.59-.35C162.31,77.6,163.32,78.56,163.06,81.55Z"/><path class="cls-1" d="M127.34,81.36c-.65-3.2.53-3.37,3-3,.66.08,1,.5.33,1A15.57,15.57,0,0,1,127.34,81.36Z"/><path class="cls-6" d="M183.75,104.38c.1.09.18.19,0,.28s-.11-.08-.17-.12Z"/><path class="cls-5" d="M119.52,167.14c0,2.52,0,5,0,7.56,0,.81-.17,1.12-1,1.11q-6.23-.06-12.46,0c-.9,0-1-.34-1-1.13,0-5.09,0-10.19,0-15.28,0-1,.36-1.13,1.21-1.12,4,0,8.11.05,12.16,0,1,0,1.21.39,1.19,1.29C119.48,162.09,119.52,164.62,119.52,167.14Z"/><path class="cls-7" d="M112.38,181.67c-1.43,0-2.86,0-4.29,0-.77,0-1-.24-1-1-.1-2.8-.13-2.8,2.63-2.8,2.17,0,4.34.05,6.51,0,1,0,1.26.25,1.26,1.23,0,2.58,0,2.58-2.56,2.58Z"/><path class="cls-1" d="M113.25,150.79c-.1,1.57-.22,3.14-.28,4.72,0,.7-.3.93-1,.94s-1-.21-1.08-1c-.07-1.93-.14-3.85-.35-5.76-.14-1.28.57-1.18,1.41-1.21s1.58.09,1.35,1.26a5.15,5.15,0,0,0,0,1Z"/><path class="cls-1" d="M105,138.79c-.18.48-.28,1.07-1,1a.76.76,0,0,1-.73-.91,1,1,0,0,1,1-1C104.67,137.9,105,138.23,105,138.79Z"/><path class="cls-1" d="M107.74,142.58a.53.53,0,0,1,.46.65.59.59,0,0,1-.53.6.47.47,0,0,1-.53-.54A.69.69,0,0,1,107.74,142.58Z"/><path class="cls-2" d="M78.28,56.39a2.61,2.61,0,0,1-1.53-.51c-1.44-1-2.87-1.92-4.31-2.88-.59-.39-1-.9-.57-1.6s1.13-.58,1.78-.13c1.22.84,2.52,1.59,3.68,2.49,1,.76,1.5.48,2.11-.45,2.31-3.51,4.68-7,7-10.46a8.45,8.45,0,0,1,.79-1.07,1,1,0,0,1,1.35-.12,1,1,0,0,1,.31,1.2,3.27,3.27,0,0,1-.43.77l-7.62,11.3A3,3,0,0,1,78.28,56.39Z"/><path class="cls-2" d="M145.28,57.71a5.4,5.4,0,0,1,3,1.1c.51.39.84.88.4,1.51a1,1,0,0,1-1.54.25,3,3,0,0,0-3.81,0,1,1,0,0,1-1.54-.2c-.44-.6-.17-1.12.35-1.52A5.12,5.12,0,0,1,145.28,57.71Z"/><path class="cls-8" d="M43.26,50.19a21.8,21.8,0,0,0-1.88,9.23q0,13.5,0,27a8.57,8.57,0,0,0,4.43,7.85c.53.33.68.27,1-.17a5.34,5.34,0,0,0,.82-3c0-13.2,0-26.41,0-39.62a12.82,12.82,0,0,0-2.69-8h0c-1.39,1.72-1.27,1.9-1.27,1.9C43.69,47.07,44,48.59,43.26,50.19Z"/></svg>