<svg id="Layer_1" data-name="Layer 1" xmlns="http://www.w3.org/2000/svg" width="200" height="200" viewBox="0 0 200 200"><defs><style>.cls-1{fill:#860000;}.cls-2{fill:#eeba34;}</style></defs><title>Icons</title><path class="cls-1" d="M23,55.47c.58,0,1.17,0,1.75,0h79.88c.54,0,1.08,0,1.61,0,4,.38,5.72,2.19,5.89,6.2,0,.35,0,.69,0,1v97.75C112,165,110,167,105.51,167.06c-8.83,0-17.65,0-26.48,0H24.75c-.58,0-1.17,0-1.75,0ZM67.35,66.89c-18.19,0-33.16,14.77-33.18,32.72,0,19,14.53,33.88,33.2,33.89a33.31,33.31,0,1,0,0-66.61Zm.14,83.48H43.64c-1.21,0-2.83-.39-3.53.22s-.13,2.4-.31,3.64c-.2,1.45.47,1.64,1.72,1.63q24.87,0,49.75,0c1.25,0,2.88.55,3.65-.26s.1-2.43.26-3.67-.44-1.57-1.64-1.56C84.86,150.4,76.17,150.37,67.49,150.37Z"/><path class="cls-2" d="M100,20a75.75,75.75,0,0,0,9.19,2.63q27.49,7.42,55,14.77C168.7,38.65,172,41.18,173,46a12.7,12.7,0,0,1-.15,5.94q-6.51,24.4-13,48.82c-.36,1.36-.82,1.88-2.27,1.33-1.11-.42-2.61-1.1-3.44-.68s-.69,2.21-1.16,3.32c-.57,1.38-.06,1.82,1.27,2.13s2.94.2,3.38,1.26c.38.89-.42,2.3-.73,3.47q-8.37,31.25-16.72,62.51c-1.32,4.93-4.27,8.1-9.31,9.2a7.84,7.84,0,0,1-3.76,0q-19-5-37.94-10.17a.92.92,0,0,1-.6-.57H90c5.85-.11,11.71.3,17.54-.21s10-4.58,9.88-10.35c-.29-9.68,2.09-18.82,4.61-28,2.2-8,4.23-16,6.38-24,.27-1,.12-1.38-.91-1.55a18.57,18.57,0,0,1-2.81-.77c-.92-.3-1.34-.14-1.61.91-1.58,6.23-3.26,12.43-4.9,18.64a1.38,1.38,0,0,1-.58,1V63.72c0-1.66,0-1.52,1.68-1.26,2.75.41,4.09,1.84,4.82,4.58,1.62,6.11,3.62,12.13,5.47,18.18a4.87,4.87,0,0,0,5.05,3.31c.8-.1.43-.76.43-1.15,0-5.81,0-11.62,0-17.42,0-3.23,0-3.23,3.14-2.4A10.3,10.3,0,0,0,140,68c3.5.27,5.3,2.5,6.44,5.48A4.94,4.94,0,0,0,150,76.75c.87.24,1.38.19,1.25-1-.2-1.93-.22-3.89-.42-5.83a6.68,6.68,0,0,1,1.3-4.8c1.2-1.65,2.25-3.42,3.4-5.11.42-.62.27-.91-.39-1.16a4.35,4.35,0,0,0-4.66.73A8.65,8.65,0,0,1,140.54,61a10.11,10.11,0,0,0-2.52-.73c-1.16-.18-1.35-.49-.68-1.55,3.38-5.47,6.66-11,10-16.47.66-1.07.49-1.43-.65-1.81a5.58,5.58,0,0,0-5.84,1.19c-2.18,2-4.2,4.07-6.33,6.07-2.87,2.71-5.8,5.36-8.68,8.06a2.43,2.43,0,0,1-2.65.64c-1.58-.49-3.2-.88-4.8-1.28a12.17,12.17,0,0,1-5.29-2.63c-2.18-1.92-4.93-2.41-7.78-2.4-7.57,0-15.13,0-22.69,0-1.3,0-1.66-.19-1.27-1.6,1.77-6.33,3.45-12.69,5.09-19,1.22-4.72,3.83-8,8.78-9.14.12,0,.21-.18.31-.27Zm44.82,93.53c.17-.49-.19-.68-.75-.81a28.93,28.93,0,0,1-3.23-.86c-1-.36-1.4-.23-1.71.91q-7.2,27.1-14.51,54.17c-.33,1.21-1.15,2.7-.74,3.6.49,1.06,2.36.74,3.54,1.27s1.78.24,2.14-1.13q6-22.82,12.16-45.6C142.72,121.32,143.74,117.53,144.8,113.57Zm1.7-8.82c.48.23.59-.19.71-.65.32-1.22.66-2.43,1-3.64.13-.45.17-.87-.43-1-1.5-.37-3.11-1.24-4.45-.94-.87.2-.79,2.3-1.19,3.52-.08.23-.12.47-.21.7-.19.51-.05.83.5,1ZM126.77,94.33c.13-.34-.1-.49-.41-.58-1.35-.37-2.71-.73-4-1.13-.59-.17-.79.13-.91.61-.33,1.27-.63,2.54-1,3.79-.17.58,0,.78.55.91q1.9.46,3.78,1c.44.13.77.13.9-.37C126,97.17,126.38,95.77,126.77,94.33Zm10.77,3c.15-.38-.16-.63-.64-.77-1.22-.33-2.45-.64-3.67-1-.57-.16-.9,0-1,.59-.32,1.27-.67,2.54-1.06,3.79-.15.51,0,.73.48.85,1.36.36,2.73.71,4.08,1.1.48.15.62-.08.72-.44C136.76,100.12,137.12,98.81,137.54,97.31Z"/><path class="cls-1" d="M67.67,93.24c2.29,0,4.58,0,6.87,0,.75,0,1.13.09,1.12,1,0,4,0,7.9,0,11.85,0,.78-.26,1-1,1q-7.09,0-14.18,0c-.87,0-1.06-.31-1-1.1,0-3.9,0-7.8,0-11.7,0-.86.27-1.07,1.08-1C62.89,93.27,65.28,93.24,67.67,93.24Z"/><path class="cls-1" d="M81.25,100.15c0-2.05,0-4.1,0-6.15,0-.68.18-.94.9-.93,3.7.06,7.4.09,11.11.11a1.41,1.41,0,0,1,1.48,1.3,26.13,26.13,0,0,1,0,11.44,1.34,1.34,0,0,1-1.4,1.22c-3.75,0-7.51,0-11.26,0-.83,0-.8-.45-.8-1C81.26,104.14,81.25,102.15,81.25,100.15Z"/><path class="cls-1" d="M53.79,100.13c0,2,0,3.9,0,5.85,0,.84-.13,1.21-1.1,1.2-3.56-.06-7.12,0-10.68,0a1.55,1.55,0,0,1-1.72-1.4,26.46,26.46,0,0,1,0-11.31,1.4,1.4,0,0,1,1.6-1.29q5.33,0,10.67-.11c.93,0,1.28.21,1.24,1.21C53.73,96.22,53.79,98.17,53.79,100.13Z"/><path class="cls-1" d="M67.56,112.7c2,0,4.09,0,6.13,0,.67,0,1,.1.76.9-1.61,4.36-2.75,8.91-5.24,12.93-1.28,2-2.19,2.08-3.4,0a50,50,0,0,1-5-12.55c-.27-1,0-1.35,1.06-1.3C63.76,112.76,65.66,112.7,67.56,112.7Z"/><path class="cls-1" d="M74.54,87.68c-4.49,0-8.77,0-13.05,0-.72,0-.92-.17-.75-.9a44.09,44.09,0,0,1,5.53-13.71c.79-1.27,1.81-1.16,2.69.27a43.76,43.76,0,0,1,4.66,10.79C73.94,85.26,74.2,86.39,74.54,87.68Z"/><path class="cls-1" d="M58.87,126.52a27.11,27.11,0,0,1-13.58-9.82c-.75-1-1.4-2.11-2.09-3.17-.37-.57-.47-.94.47-.93,3.21,0,6.43,0,9.64,0a1.7,1.7,0,0,1,1.84,1.15Q57.08,120,59,126.16C59,126.24,58.93,126.34,58.87,126.52Z"/><path class="cls-1" d="M75.65,126.7c1.35-4,3-7.74,3.93-11.66.6-2.53.59-2.5,3.27-2.45s5.55,0,8.32,0c1,0,1,.29.6,1.06A28.3,28.3,0,0,1,75.65,126.7Z"/><path class="cls-1" d="M92.15,87.67H81.51a1.63,1.63,0,0,1-1.7-1.29C78.55,82.26,77.27,78.15,76,74,81,74.31,89.74,81.7,92.15,87.67Z"/><path class="cls-1" d="M59.3,73.92c-1.65,4.1-2.86,8.35-4.15,12.56a1.62,1.62,0,0,1-1.76,1.21c-3.46,0-6.92,0-10.67,0,3.78-6.87,9.06-11.61,16.44-13.88Z"/><path class="cls-1" d="M59.16,73.8l.33,0-.19.14Z"/></svg>